<svg width="48" height="48" viewBox="0 0 48 48" fill="none" xmlns="http://www.w3.org/2000/svg">
<rect x="24.0001" y="2.88" width="29.8682" height="29.8682" rx="8.14587" transform="rotate(45 24.0001 2.88)" stroke="white" stroke-width="4.07294"/>
<path d="M27.6313 27.4925C26.9521 27.4925 26.3082 27.3412 25.6996 27.0386C25.0911 26.7359 24.5038 26.39 23.9378 26.0009C23.3717 25.5973 22.841 25.2442 22.3457 24.9416C21.8646 24.6389 21.4188 24.4876 21.0084 24.4876C20.5414 24.4876 20.23 24.7254 20.0744 25.201C19.9187 25.6622 19.9258 26.2315 20.0956 26.9088H16.869C16.4728 25.1794 16.5718 23.7165 17.1662 22.5203C17.7747 21.3096 18.8998 20.7043 20.5414 20.7043C21.2207 20.7043 21.8646 20.8556 22.4731 21.1583C23.0957 21.461 23.683 21.8141 24.2349 22.2176C24.801 22.6067 25.3246 22.9526 25.8058 23.2553C26.3011 23.558 26.761 23.7093 27.1856 23.7093C27.6243 23.7093 27.9285 23.4787 28.0983 23.0175C28.2823 22.5419 28.2752 21.9582 28.0771 21.2664H31.3037C31.7282 22.9815 31.6362 24.4515 31.0277 25.6766C30.4192 26.8872 29.2871 27.4925 27.6313 27.4925Z" fill="white"/>
</svg>
