<svg width="321" height="86" viewBox="0 0 321 86" fill="none" xmlns="http://www.w3.org/2000/svg">
<rect x="43.0001" y="5.16" width="53.5138" height="53.5138" rx="14.5947" transform="rotate(45 43.0001 5.16)" stroke="#7E49FF" stroke-width="7.29734"/>
<path d="M42.712 46.8325L42.712 46.8325L42.7163 46.8355C43.7421 47.5406 44.8066 48.1676 45.9098 48.7163C47.0421 49.2795 48.2421 49.5615 49.5061 49.5615C52.5569 49.5615 54.7086 48.4371 55.863 46.1404L55.8636 46.1392C56.9944 43.8628 57.1537 41.1512 56.3809 38.0292L56.3237 37.7982H56.0858H50.3048H49.9015L50.0125 38.186C50.3566 39.3873 50.3569 40.3605 50.0593 41.13L50.0592 41.13L50.0575 41.1346C49.9198 41.5087 49.7368 41.7643 49.5222 41.927C49.3101 42.0877 49.0445 42.1751 48.7075 42.1751C48.0201 42.1751 47.2514 41.93 46.3955 41.4073C45.5391 40.8685 44.6062 40.2523 43.5968 39.5585C42.5946 38.826 41.5283 38.1851 40.3984 37.6358C39.2664 37.073 38.0669 36.7912 36.8033 36.7912C35.2964 36.7912 34.0046 37.069 32.9416 37.6409C31.8753 38.2146 31.0559 39.0755 30.4845 40.2123L30.4845 40.2123L30.4839 40.2135C29.3787 42.4377 29.2069 45.1351 29.9273 48.2796L29.9814 48.5157H30.2237H36.0046H36.3943L36.2996 48.1377C36.0036 46.9573 36.0009 46.001 36.2547 45.249L36.2556 45.2463C36.3812 44.8625 36.5606 44.6013 36.7787 44.4347C36.995 44.2696 37.2751 44.1776 37.64 44.1776C38.3 44.1776 39.0426 44.4213 39.8742 44.9443L39.8742 44.9444L39.8775 44.9464C40.7578 45.4843 41.7025 46.1128 42.712 46.8325Z" fill="#7E49FF" stroke="#7E49FF" stroke-width="0.608112"/>
<path d="M88.5269 57.2963V31.3052H96.9379C97.1425 31.3052 97.5636 31.3112 98.2014 31.3232C98.8391 31.3353 99.4528 31.3774 100.042 31.4496C102.136 31.7023 103.911 32.4303 105.367 33.6335C106.823 34.8368 107.93 36.365 108.688 38.2181C109.446 40.0712 109.825 42.0987 109.825 44.3007C109.825 46.5028 109.446 48.5303 108.688 50.3834C107.93 52.2365 106.823 53.7646 105.367 54.9679C103.911 56.1712 102.136 56.8992 100.042 57.1519C99.4528 57.2241 98.8391 57.2662 98.2014 57.2782C97.5636 57.2903 97.1425 57.2963 96.9379 57.2963H88.5269ZM93.5085 52.6757H96.9379C97.2628 52.6757 97.702 52.6696 98.2555 52.6576C98.809 52.6335 99.3084 52.5794 99.7536 52.4952C100.885 52.2665 101.805 51.7371 102.515 50.9068C103.237 50.0765 103.767 49.0778 104.104 47.9106C104.452 46.7434 104.627 45.5401 104.627 44.3007C104.627 43.0012 104.446 41.7678 104.085 40.6006C103.737 39.4334 103.201 38.4467 102.479 37.6405C101.757 36.8343 100.849 36.3229 99.7536 36.1063C99.3084 36.0101 98.809 35.9559 98.2555 35.9439C97.702 35.9318 97.2628 35.9258 96.9379 35.9258H93.5085V52.6757ZM122.928 57.8378C120.966 57.8378 119.246 57.3986 117.766 56.5202C116.285 55.6418 115.13 54.4325 114.3 52.8922C113.482 51.34 113.073 49.5591 113.073 47.5496C113.073 45.5161 113.494 43.7292 114.336 42.189C115.178 40.6367 116.34 39.4274 117.82 38.561C119.3 37.6947 121.002 37.2615 122.928 37.2615C124.889 37.2615 126.61 37.7007 128.09 38.5791C129.582 39.4575 130.743 40.6728 131.573 42.2251C132.404 43.7653 132.819 45.5401 132.819 47.5496C132.819 49.5712 132.398 51.358 131.555 52.9103C130.725 54.4505 129.564 55.6598 128.072 56.5382C126.592 57.4046 124.877 57.8378 122.928 57.8378ZM122.928 53.2532C124.504 53.2532 125.677 52.7238 126.447 51.6649C127.229 50.594 127.62 49.2222 127.62 47.5496C127.62 45.8169 127.223 44.4331 126.429 43.3983C125.647 42.3634 124.48 41.846 122.928 41.846C121.857 41.846 120.978 42.0867 120.292 42.568C119.607 43.0493 119.095 43.7171 118.758 44.5715C118.433 45.4258 118.271 46.4185 118.271 47.5496C118.271 49.2944 118.662 50.6842 119.444 51.719C120.238 52.7418 121.399 53.2532 122.928 53.2532ZM145.379 57.8378C143.358 57.8378 141.625 57.3865 140.181 56.4841C138.737 55.5816 137.63 54.3542 136.86 52.802C136.09 51.2498 135.705 49.499 135.705 47.5496C135.705 45.5762 136.102 43.8134 136.896 42.2612C137.702 40.7089 138.833 39.4876 140.289 38.5971C141.745 37.7067 143.466 37.2615 145.452 37.2615C147.75 37.2615 149.675 37.8451 151.227 39.0123C152.792 40.1674 153.79 41.7498 154.224 43.7593L149.314 45.0588C149.025 44.048 148.52 43.2599 147.798 42.6943C147.088 42.1288 146.282 41.846 145.379 41.846C144.345 41.846 143.496 42.0987 142.834 42.6041C142.173 43.0974 141.685 43.7773 141.372 44.6437C141.06 45.498 140.903 46.4667 140.903 47.5496C140.903 49.2463 141.276 50.624 142.022 51.6829C142.78 52.7298 143.899 53.2532 145.379 53.2532C146.486 53.2532 147.329 53.0005 147.906 52.4952C148.484 51.9898 148.917 51.2678 149.206 50.3292L154.224 51.3761C153.67 53.4458 152.623 55.0401 151.083 56.1592C149.543 57.2782 147.642 57.8378 145.379 57.8378ZM161.712 57.2963V35.8897H153.517V31.3052H174.816V35.8897H166.621V57.2963H161.712ZM175.918 57.2963V37.803H180.25V42.568L179.781 41.9543C180.034 41.2805 180.371 40.6668 180.792 40.1133C181.213 39.5598 181.73 39.1025 182.344 38.7415C182.813 38.4527 183.325 38.2301 183.878 38.0737C184.432 37.9052 185.003 37.803 185.593 37.7669C186.182 37.7187 186.772 37.7308 187.362 37.803V42.3875C186.82 42.219 186.188 42.1649 185.466 42.2251C184.757 42.2732 184.113 42.4356 183.535 42.7124C182.958 42.9771 182.47 43.3321 182.073 43.7773C181.676 44.2105 181.375 44.7279 181.171 45.3296C180.966 45.9192 180.864 46.587 180.864 47.333V57.2963H175.918ZM195.822 57.8378C194.426 57.8378 193.241 57.5731 192.266 57.0436C191.304 56.5021 190.57 55.7862 190.064 54.8957C189.571 53.9933 189.324 53.0005 189.324 51.9176C189.324 51.0151 189.463 50.1909 189.739 49.4448C190.016 48.6988 190.461 48.043 191.075 47.4774C191.701 46.8998 192.537 46.4185 193.584 46.0335C194.306 45.7688 195.166 45.5341 196.165 45.3296C197.164 45.125 198.295 44.9325 199.558 44.752C200.822 44.5594 202.212 44.3489 203.728 44.1202L201.959 45.0949C201.959 43.9397 201.682 43.0914 201.129 42.5499C200.575 42.0085 199.649 41.7377 198.349 41.7377C197.627 41.7377 196.875 41.9122 196.093 42.2612C195.311 42.6101 194.763 43.2298 194.45 44.1202L190.01 42.7124C190.503 41.1 191.43 39.7884 192.79 38.7776C194.149 37.7669 196.003 37.2615 198.349 37.2615C200.07 37.2615 201.598 37.5262 202.934 38.0556C204.269 38.5851 205.28 39.4996 205.966 40.7992C206.351 41.5211 206.579 42.2431 206.652 42.9651C206.724 43.6871 206.76 44.4933 206.76 45.3837V57.2963H202.464V53.2893L203.078 54.1196C202.127 55.4312 201.098 56.3818 199.991 56.9714C198.896 57.549 197.507 57.8378 195.822 57.8378ZM196.869 53.9752C197.771 53.9752 198.529 53.8188 199.143 53.5059C199.769 53.181 200.262 52.814 200.623 52.4049C200.996 51.9958 201.249 51.6529 201.381 51.3761C201.634 50.8466 201.778 50.233 201.814 49.5351C201.863 48.8251 201.887 48.2355 201.887 47.7662L203.331 48.1272C201.875 48.3679 200.695 48.5724 199.793 48.7409C198.89 48.8973 198.162 49.0417 197.609 49.1741C197.055 49.3064 196.568 49.4508 196.147 49.6073C195.666 49.7998 195.275 50.0104 194.974 50.239C194.685 50.4556 194.468 50.6962 194.324 50.961C194.192 51.2257 194.125 51.5205 194.125 51.8454C194.125 52.2906 194.234 52.6757 194.45 53.0005C194.679 53.3134 194.998 53.5541 195.407 53.7225C195.816 53.891 196.303 53.9752 196.869 53.9752ZM224.737 57.2963V48.0911C224.737 47.6459 224.713 47.0803 224.665 46.3945C224.617 45.6966 224.467 44.9986 224.214 44.3007C223.961 43.6028 223.546 43.0192 222.969 42.5499C222.403 42.0807 221.597 41.846 220.55 41.846C220.129 41.846 219.678 41.9122 219.196 42.0446C218.715 42.1769 218.264 42.4356 217.843 42.8207C217.421 43.1937 217.072 43.7472 216.796 44.4812C216.531 45.2152 216.399 46.1899 216.399 47.4052L213.583 46.0696C213.583 44.5294 213.896 43.0854 214.521 41.7377C215.147 40.39 216.086 39.3011 217.337 38.4708C218.601 37.6405 220.189 37.2254 222.102 37.2254C223.63 37.2254 224.876 37.4841 225.838 38.0015C226.801 38.5189 227.547 39.1747 228.077 39.9689C228.618 40.7631 229.003 41.5933 229.232 42.4597C229.46 43.314 229.599 44.0962 229.647 44.8061C229.695 45.5161 229.719 46.0335 229.719 46.3584V57.2963H224.737ZM211.417 57.2963V37.803H215.785V44.2646H216.399V57.2963H211.417ZM242.019 57.8378C239.565 57.8378 237.579 57.2843 236.063 56.1772C234.559 55.0582 233.645 53.4819 233.32 51.4483L238.337 50.6902C238.542 51.6047 238.993 52.3207 239.691 52.8381C240.401 53.3555 241.297 53.6142 242.38 53.6142C243.271 53.6142 243.957 53.4458 244.438 53.1088C244.919 52.7599 245.16 52.2786 245.16 51.6649C245.16 51.2798 245.064 50.973 244.871 50.7444C244.679 50.5037 244.246 50.2691 243.572 50.0404C242.91 49.8118 241.875 49.511 240.467 49.138C238.879 48.7289 237.609 48.2716 236.659 47.7662C235.708 47.2608 235.022 46.6592 234.601 45.9613C234.18 45.2513 233.969 44.397 233.969 43.3983C233.969 42.1468 234.288 41.0639 234.926 40.1494C235.564 39.2228 236.46 38.5129 237.615 38.0196C238.783 37.5142 240.154 37.2615 241.731 37.2615C243.259 37.2615 244.613 37.4961 245.792 37.9654C246.971 38.4347 247.922 39.1025 248.644 39.9689C249.378 40.8353 249.829 41.8581 249.997 43.0373L244.98 43.9398C244.895 43.2178 244.582 42.6462 244.041 42.2251C243.499 41.8039 242.765 41.5572 241.839 41.485C240.936 41.4249 240.208 41.5452 239.655 41.846C239.113 42.1468 238.843 42.58 238.843 43.1456C238.843 43.4825 238.957 43.7653 239.186 43.9939C239.426 44.2225 239.914 44.4572 240.648 44.6978C241.394 44.9385 242.525 45.2513 244.041 45.6364C245.521 46.0214 246.706 46.4727 247.597 46.9901C248.499 47.4955 249.155 48.1092 249.564 48.8311C249.973 49.5411 250.178 50.4014 250.178 51.4122C250.178 53.4097 249.456 54.98 248.012 56.1231C246.568 57.2662 244.57 57.8378 242.019 57.8378ZM254.505 57.2963V30.7637H259.415V57.2963H254.505ZM270.241 57.8378C268.845 57.8378 267.659 57.5731 266.685 57.0436C265.722 56.5021 264.988 55.7862 264.483 54.8957C263.989 53.9933 263.743 53.0005 263.743 51.9176C263.743 51.0151 263.881 50.1909 264.158 49.4448C264.435 48.6988 264.88 48.043 265.494 47.4774C266.119 46.8998 266.956 46.4185 268.002 46.0335C268.724 45.7688 269.585 45.5341 270.583 45.3296C271.582 45.125 272.713 44.9325 273.977 44.752C275.24 44.5594 276.63 44.3489 278.146 44.1202L276.377 45.0949C276.377 43.9397 276.101 43.0914 275.547 42.5499C274.994 42.0085 274.067 41.7377 272.767 41.7377C272.045 41.7377 271.293 41.9122 270.511 42.2612C269.729 42.6101 269.182 43.2298 268.869 44.1202L264.429 42.7124C264.922 41.1 265.848 39.7884 267.208 38.7776C268.568 37.7669 270.421 37.2615 272.767 37.2615C274.488 37.2615 276.016 37.5262 277.352 38.0556C278.688 38.5851 279.698 39.4996 280.384 40.7992C280.769 41.5211 280.998 42.2431 281.07 42.9651C281.142 43.6871 281.178 44.4933 281.178 45.3837V57.2963H276.883V53.2893L277.496 54.1196C276.546 55.4312 275.517 56.3818 274.41 56.9714C273.315 57.549 271.925 57.8378 270.241 57.8378ZM271.287 53.9752C272.19 53.9752 272.948 53.8188 273.562 53.5059C274.187 53.181 274.681 52.814 275.042 52.4049C275.415 51.9958 275.667 51.6529 275.8 51.3761C276.052 50.8466 276.197 50.233 276.233 49.5351C276.281 48.8251 276.305 48.2355 276.305 47.7662L277.749 48.1272C276.293 48.3679 275.114 48.5724 274.211 48.7409C273.309 48.8973 272.581 49.0417 272.027 49.1741C271.474 49.3064 270.987 49.4508 270.565 49.6073C270.084 49.7998 269.693 50.0104 269.392 50.239C269.103 50.4556 268.887 50.6962 268.742 50.961C268.61 51.2257 268.544 51.5205 268.544 51.8454C268.544 52.2906 268.652 52.6757 268.869 53.0005C269.097 53.3134 269.416 53.5541 269.825 53.7225C270.234 53.891 270.722 53.9752 271.287 53.9752ZM297.568 57.2963C296.22 57.549 294.896 57.6573 293.597 57.6212C292.309 57.5971 291.154 57.3745 290.131 56.9534C289.12 56.5202 288.35 55.8283 287.821 54.8777C287.34 53.9872 287.087 53.0848 287.063 52.1703C287.039 51.2437 287.027 50.1969 287.027 49.0297V32.3881H291.936V48.7409C291.936 49.499 291.942 50.1848 291.954 50.7985C291.978 51.4002 292.105 51.8815 292.333 52.2425C292.766 52.9283 293.458 53.3014 294.409 53.3615C295.36 53.4217 296.412 53.3736 297.568 53.2171V57.2963ZM283.706 41.5933V37.803H297.568V41.5933H283.706ZM309.915 57.8378C307.917 57.8378 306.154 57.4106 304.626 56.5563C303.11 55.6899 301.919 54.5047 301.052 53.0005C300.198 51.4844 299.771 49.7517 299.771 47.8023C299.771 45.6725 300.192 43.8194 301.034 42.2431C301.877 40.6668 303.038 39.4455 304.518 38.5791C305.998 37.7007 307.701 37.2615 309.626 37.2615C311.672 37.2615 313.41 37.7428 314.842 38.7054C316.274 39.6681 317.333 41.0218 318.019 42.7665C318.705 44.5113 318.945 46.5629 318.741 48.9214H313.886V47.1164C313.886 45.131 313.567 43.7051 312.929 42.8387C312.303 41.9603 311.274 41.5211 309.843 41.5211C308.17 41.5211 306.937 42.0325 306.142 43.0553C305.36 44.0661 304.969 45.5642 304.969 47.5496C304.969 49.3666 305.36 50.7745 306.142 51.7732C306.937 52.7599 308.098 53.2532 309.626 53.2532C310.589 53.2532 311.413 53.0427 312.099 52.6215C312.785 52.2004 313.308 51.5927 313.669 50.7985L318.578 52.2064C317.844 53.9872 316.683 55.371 315.095 56.3577C313.519 57.3444 311.792 57.8378 309.915 57.8378ZM303.453 48.9214V45.2754H316.376V48.9214H303.453Z" fill="#1E1E1E"/>
</svg>
